<svg xmlns="http://www.w3.org/2000/svg" viewBox="0 0 500 500"><g id="freepik--background-simple--inject-259"><path d="M324.6,53.75s-77.77-27.5-154.21,16.57S55.29,201.71,22.1,271.66,7.85,412.69,66.1,445s98-15.51,179.76-18,103.77,9.2,171.71-37,80.36-155.13,26.94-235.63S324.6,53.75,324.6,53.75Z" style="fill:#90CAF9"></path><path d="M324.6,53.75s-77.77-27.5-154.21,16.57S55.29,201.71,22.1,271.66,7.85,412.69,66.1,445s98-15.51,179.76-18,103.77,9.2,171.71-37,80.36-155.13,26.94-235.63S324.6,53.75,324.6,53.75Z" style="fill:#fff;opacity:0.7000000000000001"></path></g><g id="freepik--Icons--inject-259"><path d="M267.6,75.46c.19.58.68,1.49,1.19,1.49.78,0,1.41-1.13,1.41-2.52s-.63-2.52-1.41-2.52c-.46,0-.93.8-1.13,1.29l-5.24-.15a24,24,0,0,0-2.49-9.49l6.9-4.26c.5.44,1.47,1.05,1.95.77.75-.43.73-1.86,0-3.18s-2-2.06-2.73-1.63c-.44.25-.44,1.27-.37,1.85L258.46,61a24.35,24.35,0,0,0-7-6.92l2.45-4.54c.6.12,1.64.16,1.89-.29.39-.67-.27-1.78-1.48-2.48s-2.5-.72-2.89,0c-.23.4.23,1.2.55,1.63l-2.74,4.45a23.82,23.82,0,0,0-9.47-2.57l-.24-8.11c.64-.22,1.64-.75,1.64-1.32,0-.85-1.24-1.55-2.77-1.55s-2.78.7-2.78,1.55c0,.51.89,1,1.42,1.25l-.23,8.18a23.87,23.87,0,0,0-9.48,2.57l-2.71-4.4c.4-.46,1-1.34.7-1.78-.39-.68-1.69-.66-2.89,0s-1.87,1.81-1.48,2.48c.23.4,1.16.4,1.68.34l2.48,4.59a24.35,24.35,0,0,0-7,6.92L211,57.15c.13-.66.17-1.8-.31-2.08-.75-.43-2,.3-2.74,1.62s-.78,2.76,0,3.18c.44.26,1.32-.25,1.79-.6l7,4.29a23.84,23.84,0,0,0-2.49,9.49L209,73.2c-.2-.58-.68-1.49-1.19-1.49-.79,0-1.42,1.13-1.42,2.52s.63,2.52,1.42,2.52c.46,0,.92-.8,1.13-1.29l5.24.15a23.84,23.84,0,0,0,2.49,9.49l-6.9,4.26c-.51-.44-1.47-1-2-.77-.74.43-.72,1.86,0,3.18s2,2.06,2.74,1.63c.43-.25.43-1.27.36-1.85l7.18-3.88a24.35,24.35,0,0,0,7,6.92l-2.45,4.54c-.6-.12-1.63-.16-1.89.29-.39.67.28,1.78,1.48,2.48s2.5.72,2.89,0c.23-.4-.23-1.2-.55-1.63l2.74-4.45a23.87,23.87,0,0,0,9.48,2.57l.23,8.11c-.63.22-1.64.76-1.64,1.32,0,.85,1.24,1.55,2.78,1.55s2.77-.7,2.77-1.55c0-.51-.88-1-1.42-1.25l.24-8.18a23.82,23.82,0,0,0,9.47-2.57l2.71,4.4c-.4.46-.95,1.34-.69,1.78.39.68,1.68.66,2.89,0s1.87-1.81,1.48-2.48c-.23-.4-1.16-.4-1.69-.34l-2.48-4.59a24.35,24.35,0,0,0,7-6.92l7.12,3.84c-.13.66-.17,1.8.32,2.08.74.43,2-.3,2.73-1.62s.79-2.76,0-3.18c-.44-.26-1.32.25-1.78.6l-7-4.29a24,24,0,0,0,2.49-9.49Z" style="fill:none;stroke:#787878;stroke-linecap:round;stroke-linejoin:round"></path><path d="M240.19,55.87a2.49,2.49,0,1,1-2.49-2.37A2.43,2.43,0,0,1,240.19,55.87Z" style="fill:none;stroke:#787878;stroke-linecap:round;stroke-linejoin:round"></path><path d="M225.15,75a2.49,2.49,0,1,1-2.49-2.37A2.43,2.43,0,0,1,225.15,75Z" style="fill:none;stroke:#787878;stroke-linecap:round;stroke-linejoin:round"></path><path d="M236.29,68.88a2.49,2.49,0,1,1-2.49-2.37A2.43,2.43,0,0,1,236.29,68.88Z" style="fill:none;stroke:#787878;stroke-linecap:round;stroke-linejoin:round"></path><path d="M230.49,89.5A2.49,2.49,0,1,1,228,87.13,2.43,2.43,0,0,1,230.49,89.5Z" style="fill:none;stroke:#787878;stroke-linecap:round;stroke-linejoin:round"></path><path d="M257.63,79.54a2.49,2.49,0,1,1-2.49-2.37A2.43,2.43,0,0,1,257.63,79.54Z" style="fill:none;stroke:#787878;stroke-linecap:round;stroke-linejoin:round"></path><path d="M239.81,82.78a2.49,2.49,0,1,1-2.48-2.37A2.43,2.43,0,0,1,239.81,82.78Z" style="fill:none;stroke:#787878;stroke-linecap:round;stroke-linejoin:round"></path><path d="M247.87,73.3a2.49,2.49,0,1,1-2.48-2.37A2.43,2.43,0,0,1,247.87,73.3Z" style="fill:none;stroke:#787878;stroke-linecap:round;stroke-linejoin:round"></path><path d="M253.89,62.26a2.49,2.49,0,1,1-2.49-2.37A2.43,2.43,0,0,1,253.89,62.26Z" style="fill:none;stroke:#787878;stroke-linecap:round;stroke-linejoin:round"></path><path d="M248.14,90.69a2.49,2.49,0,1,1-2.48-2.38A2.43,2.43,0,0,1,248.14,90.69Z" style="fill:none;stroke:#787878;stroke-linecap:round;stroke-linejoin:round"></path><path d="M227.76,60.11a2.49,2.49,0,1,1-2.49-2.37A2.43,2.43,0,0,1,227.76,60.11Z" style="fill:none;stroke:#787878;stroke-linecap:round;stroke-linejoin:round"></path><path d="M460.08,260.49c.16.45.53,1.15.92,1.15.61,0,1.09-.87,1.09-1.94s-.48-1.95-1.09-1.95c-.35,0-.71.62-.87,1l-4-.12a18.6,18.6,0,0,0-1.92-7.32l5.32-3.28c.39.34,1.14.81,1.51.59.57-.33.56-1.43,0-2.45s-1.54-1.59-2.11-1.26c-.34.2-.34,1-.28,1.43l-5.54,3a18.71,18.71,0,0,0-5.38-5.33l1.88-3.5c.47.09,1.27.11,1.46-.23.3-.52-.21-1.38-1.14-1.91s-1.93-.55-2.23,0c-.18.31.18.93.43,1.25L445.94,243a18.47,18.47,0,0,0-7.3-2l-.19-6.25c.5-.17,1.27-.58,1.27-1,0-.67-1-1.2-2.14-1.2s-2.14.53-2.14,1.2c0,.39.68.78,1.1,1l-.19,6.3a18.56,18.56,0,0,0-7.3,2L427,239.62c.31-.35.73-1,.54-1.37-.31-.52-1.3-.51-2.24,0s-1.44,1.4-1.14,1.92c.18.3.9.3,1.3.25l1.92,3.55a18.62,18.62,0,0,0-5.39,5.33l-5.49-3c.1-.51.13-1.39-.24-1.61-.58-.33-1.52.24-2.11,1.26s-.61,2.12,0,2.45c.34.2,1-.2,1.38-.47l5.36,3.31a18.6,18.6,0,0,0-1.92,7.32l-4,.12c-.15-.45-.53-1.15-.92-1.15-.6,0-1.09.87-1.09,1.94s.49,1.95,1.09,1.95c.35,0,.71-.62.87-1l4,.12a18.6,18.6,0,0,0,1.92,7.32l-5.32,3.28c-.39-.34-1.13-.81-1.51-.59-.57.33-.56,1.43,0,2.45s1.54,1.59,2.11,1.26c.34-.2.34-1,.29-1.43l5.53-3a18.62,18.62,0,0,0,5.39,5.33l-1.89,3.51c-.47-.1-1.26-.12-1.46.22-.3.52.21,1.38,1.14,1.91s1.93.55,2.23,0c.18-.31-.18-.93-.43-1.25l2.12-3.43a18.56,18.56,0,0,0,7.31,2l.18,6.25c-.49.17-1.27.58-1.27,1,0,.66,1,1.19,2.14,1.19s2.14-.53,2.14-1.19c0-.4-.68-.79-1.1-1l.19-6.31a18.47,18.47,0,0,0,7.3-2l2.09,3.39c-.31.35-.73,1-.53,1.37.3.52,1.3.51,2.23,0s1.44-1.39,1.14-1.92c-.18-.3-.9-.3-1.3-.25l-1.91-3.55a18.71,18.71,0,0,0,5.38-5.33l5.49,3c-.1.51-.13,1.39.24,1.61.58.33,1.52-.23,2.11-1.26s.61-2.12,0-2.45c-.33-.2-1,.2-1.37.47l-5.37-3.31a18.6,18.6,0,0,0,1.92-7.32Z" style="fill:none;stroke:#787878;stroke-linecap:round;stroke-linejoin:round"></path><path d="M439,245.39a1.92,1.92,0,1,1-1.92-1.83A1.87,1.87,0,0,1,439,245.39Z" style="fill:none;stroke:#787878;stroke-linecap:round;stroke-linejoin:round"></path><path d="M427.35,260.17a1.92,1.92,0,1,1-1.92-1.83A1.88,1.88,0,0,1,427.35,260.17Z" style="fill:none;stroke:#787878;stroke-linecap:round;stroke-linejoin:round"></path><path d="M435.94,255.42a1.92,1.92,0,1,1-1.92-1.83A1.87,1.87,0,0,1,435.94,255.42Z" style="fill:none;stroke:#787878;stroke-linecap:round;stroke-linejoin:round"></path><path d="M431.46,271.32a1.92,1.92,0,1,1-1.92-1.83A1.88,1.88,0,0,1,431.46,271.32Z" style="fill:none;stroke:#787878;stroke-linecap:round;stroke-linejoin:round"></path><path d="M452.39,263.64a1.92,1.92,0,1,1-1.92-1.83A1.88,1.88,0,0,1,452.39,263.64Z" style="fill:none;stroke:#787878;stroke-linecap:round;stroke-linejoin:round"></path><path d="M438.66,266.14a1.92,1.92,0,1,1-1.92-1.83A1.88,1.88,0,0,1,438.66,266.14Z" style="fill:none;stroke:#787878;stroke-linecap:round;stroke-linejoin:round"></path><path d="M444.87,258.83A1.92,1.92,0,1,1,443,257,1.88,1.88,0,0,1,444.87,258.83Z" style="fill:none;stroke:#787878;stroke-linecap:round;stroke-linejoin:round"></path><path d="M449.51,250.31a1.92,1.92,0,1,1-1.92-1.83A1.88,1.88,0,0,1,449.51,250.31Z" style="fill:none;stroke:#787878;stroke-linecap:round;stroke-linejoin:round"></path><path d="M445.08,272.23a1.92,1.92,0,1,1-1.92-1.82A1.88,1.88,0,0,1,445.08,272.23Z" style="fill:none;stroke:#787878;stroke-linecap:round;stroke-linejoin:round"></path><path d="M429.36,248.65a1.92,1.92,0,1,1-1.92-1.83A1.88,1.88,0,0,1,429.36,248.65Z" style="fill:none;stroke:#787878;stroke-linecap:round;stroke-linejoin:round"></path><path d="M253.36,308.38c.1.29.34.74.59.74s.71-.56.71-1.26-.32-1.26-.71-1.26c-.23,0-.46.4-.56.65l-2.62-.08a12,12,0,0,0-1.24-4.74l3.44-2.12c.26.22.74.52,1,.38s.36-.92,0-1.58-1-1-1.37-.82c-.21.13-.22.64-.18.93l-3.58,1.93a12.2,12.2,0,0,0-3.49-3.45l1.23-2.27c.3.06.81.08.94-.14s-.14-.89-.74-1.24-1.25-.36-1.44,0,.11.6.27.81l-1.37,2.22a12.09,12.09,0,0,0-4.72-1.28l-.12-4c.32-.11.82-.37.82-.65s-.62-.78-1.39-.78-1.38.35-1.38.78c0,.25.44.51.71.62l-.12,4.08a12.13,12.13,0,0,0-4.73,1.28l-1.35-2.19c.2-.23.47-.67.34-.89s-.84-.33-1.44,0-.93.9-.74,1.24.58.2.84.17l1.24,2.29a12.17,12.17,0,0,0-3.48,3.45l-3.56-1.91c.07-.33.09-.9-.15-1s-1,.15-1.37.81-.39,1.37,0,1.59c.22.12.66-.13.89-.31l3.48,2.14a12,12,0,0,0-1.25,4.74l-2.58.08c-.1-.29-.34-.75-.6-.75s-.7.57-.7,1.26.31,1.26.7,1.26c.23,0,.47-.4.57-.64l2.61.07a12,12,0,0,0,1.25,4.74l-3.45,2.12c-.25-.22-.73-.52-1-.38s-.37.93,0,1.59,1,1,1.36.81c.22-.13.22-.64.18-.92l3.59-1.94a12,12,0,0,0,3.48,3.45l-1.22,2.27c-.3-.06-.82-.08-.94.14s.13.9.73,1.24,1.25.36,1.45,0-.12-.6-.28-.81l1.37-2.22a12,12,0,0,0,4.73,1.28l.12,4.05c-.32.11-.82.38-.82.66s.62.77,1.38.77,1.39-.35,1.39-.77c0-.26-.44-.51-.71-.63l.12-4.08a11.92,11.92,0,0,0,4.72-1.28l1.36,2.19c-.2.23-.48.67-.35.89s.84.33,1.44,0,.94-.9.74-1.24-.58-.2-.84-.16l-1.24-2.3a12.08,12.08,0,0,0,3.49-3.45l3.55,1.92c-.06.33-.08.9.16,1s1-.15,1.36-.82.4-1.37,0-1.58c-.22-.13-.66.13-.89.3l-3.47-2.14a12,12,0,0,0,1.24-4.74Z" style="fill:none;stroke:#787878;stroke-linecap:round;stroke-linejoin:round"></path><path d="M239.68,298.6a1.25,1.25,0,1,1-1.25-1.18A1.22,1.22,0,0,1,239.68,298.6Z" style="fill:none;stroke:#787878;stroke-linecap:round;stroke-linejoin:round"></path><path d="M232.17,308.17a1.24,1.24,0,1,1-1.24-1.19A1.21,1.21,0,0,1,232.17,308.17Z" style="fill:none;stroke:#787878;stroke-linecap:round;stroke-linejoin:round"></path><ellipse cx="236.49" cy="305.09" rx="1.24" ry="1.18" style="fill:none;stroke:#787878;stroke-linecap:round;stroke-linejoin:round"></ellipse><path d="M234.83,315.38a1.24,1.24,0,1,1-1.24-1.18A1.21,1.21,0,0,1,234.83,315.38Z" style="fill:none;stroke:#787878;stroke-linecap:round;stroke-linejoin:round"></path><path d="M248.38,310.41a1.24,1.24,0,1,1-1.24-1.18A1.22,1.22,0,0,1,248.38,310.41Z" style="fill:none;stroke:#787878;stroke-linecap:round;stroke-linejoin:round"></path><path d="M239.49,312a1.24,1.24,0,1,1-1.24-1.18A1.22,1.22,0,0,1,239.49,312Z" style="fill:none;stroke:#787878;stroke-linecap:round;stroke-linejoin:round"></path><path d="M243.51,307.3a1.24,1.24,0,1,1-1.24-1.18A1.21,1.21,0,0,1,243.51,307.3Z" style="fill:none;stroke:#787878;stroke-linecap:round;stroke-linejoin:round"></path><path d="M246.51,301.79a1.24,1.24,0,1,1-1.24-1.19A1.21,1.21,0,0,1,246.51,301.79Z" style="fill:none;stroke:#787878;stroke-linecap:round;stroke-linejoin:round"></path><path d="M243.65,316a1.25,1.25,0,1,1-1.25-1.19A1.22,1.22,0,0,1,243.65,316Z" style="fill:none;stroke:#787878;stroke-linecap:round;stroke-linejoin:round"></path><path d="M233.47,300.71a1.24,1.24,0,1,1-1.24-1.18A1.21,1.21,0,0,1,233.47,300.71Z" style="fill:none;stroke:#787878;stroke-linecap:round;stroke-linejoin:round"></path><path d="M77.2,412.38c.1.29.34.75.6.75s.7-.57.7-1.26-.31-1.26-.7-1.26c-.23,0-.46.4-.57.64l-2.61-.07a12,12,0,0,0-1.25-4.74l3.45-2.13c.25.22.73.53,1,.39s.36-.93,0-1.59-1-1-1.36-.81c-.22.12-.22.63-.18.92l-3.59,1.94a12.2,12.2,0,0,0-3.48-3.46l1.22-2.26c.3.06.82.08.94-.15s-.13-.89-.73-1.24-1.25-.35-1.45,0c-.11.19.12.6.28.81l-1.37,2.22a11.92,11.92,0,0,0-4.73-1.28l-.12-4.05c.32-.11.82-.38.82-.66s-.62-.77-1.38-.77-1.39.34-1.39.77c0,.25.45.51.71.62l-.12,4.09a11.92,11.92,0,0,0-4.72,1.28l-1.36-2.2c.2-.23.48-.66.35-.89s-.84-.32-1.44,0-.94.91-.74,1.24.58.2.84.17l1.24,2.3a12.08,12.08,0,0,0-3.49,3.45L49,403.24c.06-.33.08-.9-.16-1s-1,.15-1.36.81-.39,1.38,0,1.59.66-.13.89-.3l3.47,2.14a12,12,0,0,0-1.24,4.74l-2.58.07c-.1-.29-.35-.74-.6-.74s-.71.56-.71,1.26S47,413,47.37,413c.23,0,.46-.4.56-.64l2.62.08a12,12,0,0,0,1.24,4.73l-3.44,2.13c-.25-.22-.74-.53-1-.39s-.36.93,0,1.59,1,1,1.37.81.22-.63.18-.92l3.58-1.93A12.33,12.33,0,0,0,56,421.93l-1.22,2.26c-.3-.06-.82-.07-.95.15s.14.89.74,1.24,1.25.35,1.44,0-.11-.6-.27-.82l1.37-2.22a11.93,11.93,0,0,0,4.72,1.29l.12,4c-.32.11-.82.38-.82.66s.62.77,1.39.77,1.38-.34,1.38-.77c0-.25-.44-.51-.71-.62l.12-4.08a12.1,12.1,0,0,0,4.73-1.29l1.35,2.2c-.2.23-.47.67-.34.89s.84.33,1.44,0,.93-.91.74-1.24-.58-.2-.84-.17l-1.24-2.29a12.3,12.3,0,0,0,3.48-3.45l3.56,1.91c-.07.33-.09.9.15,1s1-.15,1.37-.81.39-1.38,0-1.59c-.22-.13-.66.13-.89.3l-3.48-2.14a12,12,0,0,0,1.25-4.74Z" style="fill:none;stroke:#787878;stroke-linecap:round;stroke-linejoin:round"></path><path d="M63.52,402.6a1.24,1.24,0,1,1-1.24-1.18A1.21,1.21,0,0,1,63.52,402.6Z" style="fill:none;stroke:#787878;stroke-linecap:round;stroke-linejoin:round"></path><path d="M56,412.17A1.25,1.25,0,1,1,54.78,411,1.22,1.22,0,0,1,56,412.17Z" style="fill:none;stroke:#787878;stroke-linecap:round;stroke-linejoin:round"></path><ellipse cx="60.34" cy="409.09" rx="1.24" ry="1.18" style="fill:none;stroke:#787878;stroke-linecap:round;stroke-linejoin:round"></ellipse><path d="M58.68,419.39a1.25,1.25,0,1,1-1.24-1.19A1.22,1.22,0,0,1,58.68,419.39Z" style="fill:none;stroke:#787878;stroke-linecap:round;stroke-linejoin:round"></path><path d="M72.23,414.42A1.25,1.25,0,1,1,71,413.24,1.22,1.22,0,0,1,72.23,414.42Z" style="fill:none;stroke:#787878;stroke-linecap:round;stroke-linejoin:round"></path><path d="M63.34,416a1.25,1.25,0,1,1-1.25-1.18A1.22,1.22,0,0,1,63.34,416Z" style="fill:none;stroke:#787878;stroke-linecap:round;stroke-linejoin:round"></path><path d="M67.36,411.3a1.25,1.25,0,1,1-1.24-1.18A1.22,1.22,0,0,1,67.36,411.3Z" style="fill:none;stroke:#787878;stroke-linecap:round;stroke-linejoin:round"></path><path d="M70.36,405.79a1.24,1.24,0,1,1-1.24-1.18A1.22,1.22,0,0,1,70.36,405.79Z" style="fill:none;stroke:#787878;stroke-linecap:round;stroke-linejoin:round"></path><path d="M67.49,420a1.24,1.24,0,1,1-1.24-1.18A1.21,1.21,0,0,1,67.49,420Z" style="fill:none;stroke:#787878;stroke-linecap:round;stroke-linejoin:round"></path><path d="M57.32,404.72a1.25,1.25,0,1,1-1.24-1.19A1.22,1.22,0,0,1,57.32,404.72Z" style="fill:none;stroke:#787878;stroke-linecap:round;stroke-linejoin:round"></path></g><g id="freepik--picture-2--inject-259"><circle cx="355.75" cy="252.19" r="44.94" style="fill:#90CAF9"></circle><path d="M337.57,217.6,353,226.26s16.39,1.94,18.27,2.6,17.33,9.32,18.15,10.6-1.52,3.13-3.61,2.26-9-3.72-10-4.37-4,.57-4,.57S388.41,250,391.54,252s5.62,4.08,3.9,6.16-20.65-10.78-20.65-10.78l-1.09,1.54S391,261.76,392,262.65c1.36,1.23,1.84,3.61.56,4.85s-3.8.36-4.84-.29S370,254.52,370,254.52l-.87,1.67s12.46,10.72,13.08,11.36,2.31,2.11.65,3.73c-1.23,1.19-3.38-.09-4.47-1.16-.63-.63-12.92-8.73-12.92-8.73l-.66,1.89,9.8,5.83s1.67.87.39,2.11-16.31-6.57-16.94-7.21S338,243.7,338,243.7l-14.6-8.65" style="fill:#fff;stroke:#263238;stroke-linecap:round;stroke-linejoin:round"></path><path d="M371.76,237.92s-9.41,4.2-13.79,4.87-6.73-4.38-6.73-4.38" style="fill:#fff;stroke:#263238;stroke-linecap:round;stroke-linejoin:round"></path><path d="M332.83,210.82,353,226.26s16.39,1.94,18.27,2.6,17.33,9.32,18.15,10.6-1.52,3.13-3.61,2.26-9-3.72-10-4.37-4,.57-4,.57S388.41,250,391.54,252s5.62,4.08,3.9,6.16-20.65-10.78-20.65-10.78l-1.09,1.54S391,261.76,392,262.65c1.36,1.23,1.84,3.61.56,4.85s-3.8.36-4.84-.29S370,254.52,370,254.52l-.87,1.67s12.46,10.72,13.08,11.36,2.31,2.11.65,3.73c-1.23,1.19-3.38-.09-4.47-1.16-.63-.63-12.92-8.73-12.92-8.73l-.66,1.89,9.8,5.83s1.67.87.39,2.11-16.31-6.57-16.94-7.21S338,243.7,338,243.7l-26.85-16" style="fill:#fff;stroke:#263238;stroke-linecap:round;stroke-linejoin:round"></path><path d="M371.76,237.92s-9.41,4.2-13.79,4.87-6.73-4.38-6.73-4.38" style="fill:#fff;stroke:#263238;stroke-linecap:round;stroke-linejoin:round"></path><path d="M354.94,245.82a6.06,6.06,0,1,1-6.06-6.06A6.06,6.06,0,0,1,354.94,245.82Z" style="fill:#fff;stroke:#919191;stroke-linecap:round;stroke-linejoin:round"></path><path d="M364.37,245a4.88,4.88,0,1,1-4.88-4.88A4.87,4.87,0,0,1,364.37,245Z" style="fill:#fff;stroke:#919191;stroke-linecap:round;stroke-linejoin:round"></path><path d="M361,254.07a5.56,5.56,0,1,1-5.55-5.56A5.54,5.54,0,0,1,361,254.07Z" style="fill:#fff;stroke:#919191;stroke-linecap:round;stroke-linejoin:round"></path><circle cx="379.52" cy="246.83" r="5.05" style="fill:#fff;stroke:#919191;stroke-linecap:round;stroke-linejoin:round"></circle><circle cx="371.78" cy="242.79" r="5.05" style="fill:#fff;stroke:#919191;stroke-linecap:round;stroke-linejoin:round"></circle><path d="M389.29,256.93a5.05,5.05,0,1,1-5.05-5.05A5,5,0,0,1,389.29,256.93Z" style="fill:#fff;stroke:#919191;stroke-linecap:round;stroke-linejoin:round"></path><path d="M381.21,256.26a5.05,5.05,0,1,1-5-5A5,5,0,0,1,381.21,256.26Z" style="fill:#fff;stroke:#919191;stroke-linecap:round;stroke-linejoin:round"></path><circle cx="366.39" cy="237.74" r="3.7" style="fill:#fff;stroke:#919191;stroke-linecap:round;stroke-linejoin:round"></circle><path d="M304.31,265.71l17-5.06s12.8-10.42,14.59-11.31,18.75-6,20.24-5.65,1.19,3.27-.9,4.16-8.92,3.87-10.12,4.17-2.38,3.27-2.38,3.27,20.28-3.53,23.85-4.42,6.85-1.19,7.15,1.48-22.12,7.33-22.12,7.33l.35,1.86s21.29-3.48,22.62-3.57c1.82-.12,3.87,1.19,3.87,3s-2.38,3-3.57,3.27-21.43,3.87-21.43,3.87l.59,1.79s16.37-1.49,17.27-1.49,3.12-.19,3.12,2.13c0,1.71-2.41,2.37-3.94,2.4-.89,0-15.26,3.21-15.26,3.21l.9,1.78,11-3s1.78-.6,1.78,1.19-16.07,7.14-17,7.14l-28.57.3L307,288" style="fill:#fff;stroke:#263238;stroke-linecap:round;stroke-linejoin:round"></path><circle cx="369.59" cy="248.35" r="4.88" style="fill:#fff;stroke:#919191;stroke-linecap:round;stroke-linejoin:round"></circle><path d="M339.46,247.84a3,3,0,1,1-3-3A3,3,0,0,1,339.46,247.84Z" style="fill:#fff;stroke:#919191;stroke-linecap:round;stroke-linejoin:round"></path><path d="M381.54,259.62a2.36,2.36,0,1,1-2.35-2.35A2.35,2.35,0,0,1,381.54,259.62Z" style="fill:#fff;stroke:#919191;stroke-linecap:round;stroke-linejoin:round"></path><path d="M368.75,261.31a3.37,3.37,0,1,1-3.37-3.37A3.37,3.37,0,0,1,368.75,261.31Z" style="fill:#fff;stroke:#919191;stroke-linecap:round;stroke-linejoin:round"></path><circle cx="364.04" cy="272.76" r="3.37" style="fill:#fff;stroke:#919191;stroke-linecap:round;stroke-linejoin:round"></circle><path d="M366.39,254.07a2.53,2.53,0,1,1-2.52-2.53A2.52,2.52,0,0,1,366.39,254.07Z" style="fill:#fff;stroke:#919191;stroke-linecap:round;stroke-linejoin:round"></path><path d="M377.5,265.18a2.86,2.86,0,1,1-2.86-2.86A2.86,2.86,0,0,1,377.5,265.18Z" style="fill:#fff;stroke:#919191;stroke-linecap:round;stroke-linejoin:round"></path><path d="M351.24,259.56a4.27,4.27,0,1,1-4.27-4.27A4.27,4.27,0,0,1,351.24,259.56Z" style="fill:#fff;stroke:#919191;stroke-linecap:round;stroke-linejoin:round"></path><path d="M335.75,265.52a6.23,6.23,0,1,1-6.23-6.23A6.23,6.23,0,0,1,335.75,265.52Z" style="fill:#fff;stroke:#919191;stroke-linecap:round;stroke-linejoin:round"></path><circle cx="334.57" cy="259.12" r="2.53" style="fill:#fff;stroke:#919191;stroke-linecap:round;stroke-linejoin:round"></circle><circle cx="344.68" cy="272.25" r="1.85" style="fill:#fff;stroke:#919191;stroke-linecap:round;stroke-linejoin:round"></circle><circle cx="326.04" cy="273.43" r="1.85" style="fill:#fff;stroke:#919191;stroke-linecap:round;stroke-linejoin:round"></circle><circle cx="333.28" cy="273.77" r="1.85" style="fill:#fff;stroke:#919191;stroke-linecap:round;stroke-linejoin:round"></circle></g><g id="freepik--Character--inject-259"><ellipse cx="152.37" cy="470.3" rx="85.5" ry="7" style="fill:#263238;stroke:#263238;stroke-linecap:round;stroke-linejoin:round"></ellipse><path d="M223.92,178.12s8.48-14.9,9.17-16.28,13.3-11.23,15.14-12.15,2.52,1.15,2.06,2.52-7.8,7.8-7.8,7.8,4.59,8.94,4.59,10.09-5.05,7.57-7.8,9.86-8,2.29-8,2.29l-3.9,3.9Z" style="fill:#fff;stroke:#263238;stroke-linecap:round;stroke-linejoin:round"></path><path d="M251,165.51s2.06,2.75,1.14,5.05-6,4.12-6.65,3.67-.45-1.84,0-2.76S251,165.51,251,165.51Z" style="fill:#fff;stroke:#263238;stroke-linecap:round;stroke-linejoin:round"></path><path d="M247.54,161.61s3.67,1.15,3.44,3.9-4.59,6.65-6.88,6.88-2.07-.92-.92-3Z" style="fill:#fff;stroke:#263238;stroke-linecap:round;stroke-linejoin:round"></path><path d="M242.49,160s4.13-1.61,5,1.6-2.07,7.11-4.13,8.95-3.67-.23-3-2.07S242.49,160,242.49,160Z" style="fill:#fff;stroke:#263238;stroke-linecap:round;stroke-linejoin:round"></path><path d="M234.47,164.6s8.48-2.07,10.32-1.38,6.42,5.27,6.65,6.19-.23,1.84-1.15,1.84-7.11-1.84-7.11-1.84-5.73,7.34-8.48,7.8a14,14,0,0,1-4.13.23" style="fill:#fff;stroke:#263238;stroke-linecap:round;stroke-linejoin:round"></path><path d="M175.07,148.82s6.68,1.39,9.18,6.67,15.2,44.84,15.2,44.84l25.31-26.42,9.73,19.19S199.17,233.7,197,234.81a10.51,10.51,0,0,1-9.46-.55c-3.33-1.95-14.18-27.53-14.73-28.65,3,6,.08,3.63-7.23-50.61" style="fill:#fff;stroke:#263238;stroke-linecap:round;stroke-linejoin:round"></path><path d="M136.63,425.43s.81,8.07-1.21,14.93a113.16,113.16,0,0,0-3.63,22.2c0,3.63.4,5.65,2.82,7.26s48,0,48,0a5.25,5.25,0,0,0,3.23-4.84,9.43,9.43,0,0,0-5.25-8.48c-3.23-1.61-19.37-9.28-21.79-13.31s-2.83-6.87-3.63-9.69a47.66,47.66,0,0,1-1.21-6.86Z" style="fill:#fff;stroke:#263238;stroke-linecap:round;stroke-linejoin:round"></path><polygon points="154.05 429.03 136.89 432.17 136.7 426.81 152.2 426.26 154.05 429.03" style="fill:#263238;stroke:#263238;stroke-linecap:round;stroke-linejoin:round"></polygon><path d="M180.62,456.5c-3.23-1.61-19.37-9.28-21.79-13.31a25.28,25.28,0,0,1-1.64-3.23c-.3.07-7.68,1.7-9.66,6.05a34.3,34.3,0,0,0-2.42,6.46s-7.67-.41-10.5-2.83c-.36-.31-.73-.61-1.1-.89a101.33,101.33,0,0,0-1.72,13.81c0,3.63.4,5.65,2.82,7.26s48,0,48,0a5.25,5.25,0,0,0,3.23-4.84A9.43,9.43,0,0,0,180.62,456.5Z" style="fill:#90CAF9;stroke:#263238;stroke-linecap:round;stroke-linejoin:round"></path><path d="M132.83,461.71A61,61,0,0,0,152,466.45c11.19.95,26.74,1.14,29.21,1.14a14.39,14.39,0,0,0,4.17-.57" style="fill:none;stroke:#263238;stroke-linecap:round;stroke-linejoin:round"></path><path d="M160.52,464.27a21.52,21.52,0,0,1-5.66-1.2,1,1,0,1,1,.7-2,20,20,0,0,0,5,1.07,1,1,0,1,1,0,2.1Z" style="fill:#263238"></path><path d="M172.28,465.79A38,38,0,0,1,166,465a1,1,0,0,1,.43-2.05,37.7,37.7,0,0,0,5.85.73,1.05,1.05,0,0,1,0,2.1Z" style="fill:#263238"></path><path d="M180.51,466.08c-1.23,0-2.23-.09-2.44-.11a1,1,0,0,1-.95-1.14,1.07,1.07,0,0,1,1.14-.95,18.07,18.07,0,0,0,5.81-.31,1,1,0,1,1,.71,2A13.75,13.75,0,0,1,180.51,466.08Z" style="fill:#263238"></path><path d="M162,456.87c0,.68-1,1.23-2.27,1.23s-2.28-.55-2.28-1.23,1-1.23,2.28-1.23S162,456.19,162,456.87Z" style="fill:#263238"></path><path d="M168.27,453.75c-.12.67-1.22,1-2.46.82s-2.14-.93-2-1.61,1.22-1,2.46-.82S168.38,453.08,168.27,453.75Z" style="fill:#263238"></path><path d="M176.6,456.64c-.13.67-1.23,1-2.47.77s-2.12-1-2-1.64,1.24-1,2.47-.78S176.74,456,176.6,456.64Z" style="fill:#263238"></path><path d="M170.58,458.58c0,.68-1,1.23-2.28,1.23s-2.27-.55-2.27-1.23,1-1.24,2.27-1.24S170.58,457.89,170.58,458.58Z" style="fill:#263238"></path><path d="M181,459.83c-.09.67-1.17,1.08-2.42.92s-2.18-.85-2.09-1.53,1.17-1.09,2.42-.92S181.08,459.15,181,459.83Z" style="fill:#263238"></path><path d="M117.47,425.43s.81,8.07-1.21,14.93a113.92,113.92,0,0,0-3.63,22.2c0,3.63.4,5.65,2.83,7.26s48,0,48,0a5.25,5.25,0,0,0,3.23-4.84,9.43,9.43,0,0,0-5.25-8.48c-3.22-1.61-19.37-9.28-21.79-13.31s-2.82-6.87-3.63-9.69a47.66,47.66,0,0,1-1.21-6.86Z" style="fill:#fff;stroke:#263238;stroke-linecap:round;stroke-linejoin:round"></path><polygon points="134.86 429.4 117.52 432.35 117.33 427.74 134.67 427.37 134.86 429.4" style="fill:#263238;stroke:#263238;stroke-linecap:round;stroke-linejoin:round"></polygon><path d="M161.46,456.5c-3.22-1.61-19.37-9.28-21.79-13.31A25.28,25.28,0,0,1,138,440c-.29.07-7.68,1.7-9.66,6.05a34.3,34.3,0,0,0-2.42,6.46s-7.67-.41-10.49-2.83c-.37-.31-.74-.61-1.11-.89a101.33,101.33,0,0,0-1.72,13.81c0,3.63.4,5.65,2.83,7.26s48,0,48,0a5.25,5.25,0,0,0,3.23-4.84A9.43,9.43,0,0,0,161.46,456.5Z" style="fill:#90CAF9;stroke:#263238;stroke-linecap:round;stroke-linejoin:round"></path><path d="M113.67,461.71a61,61,0,0,0,19.16,4.74c11.19.95,26.75,1.14,29.21,1.14a14.39,14.39,0,0,0,4.17-.57" style="fill:none;stroke:#263238;stroke-linecap:round;stroke-linejoin:round"></path><path d="M141.37,464.27a21.41,21.41,0,0,1-5.66-1.2,1,1,0,1,1,.69-2,20.14,20.14,0,0,0,5,1.07,1.05,1.05,0,0,1,0,2.1Z" style="fill:#263238"></path><path d="M153.13,465.79a38,38,0,0,1-6.29-.78,1,1,0,0,1,.43-2.05,37.7,37.7,0,0,0,5.86.73,1.05,1.05,0,0,1,0,2.1Z" style="fill:#263238"></path><path d="M161.35,466.08c-1.23,0-2.23-.09-2.44-.11a1.05,1.05,0,0,1-.95-1.14,1.07,1.07,0,0,1,1.14-.95,18.07,18.07,0,0,0,5.81-.31,1,1,0,1,1,.71,2A13.75,13.75,0,0,1,161.35,466.08Z" style="fill:#263238"></path><ellipse cx="140.61" cy="456.87" rx="2.28" ry="1.23" style="fill:#263238"></ellipse><path d="M149.11,453.75c-.12.67-1.22,1-2.46.82s-2.14-.93-2-1.61,1.22-1,2.46-.82S149.23,453.08,149.11,453.75Z" style="fill:#263238"></path><path d="M157.45,456.64c-.13.67-1.24,1-2.47.77s-2.13-1-2-1.64,1.24-1,2.47-.78S157.58,456,157.45,456.64Z" style="fill:#263238"></path><path d="M151.42,458.58c0,.68-1,1.23-2.28,1.23s-2.27-.55-2.27-1.23,1-1.24,2.27-1.24S151.42,457.89,151.42,458.58Z" style="fill:#263238"></path><path d="M161.83,459.83c-.09.67-1.17,1.08-2.42.92s-2.18-.85-2.09-1.53,1.17-1.09,2.42-.92S161.92,459.15,161.83,459.83Z" style="fill:#263238"></path><polygon points="180.84 300.72 159.85 428.66 136.44 428.66 138.86 302.34 180.84 300.72" style="fill:#90CAF9;stroke:#263238;stroke-linecap:round;stroke-linejoin:round"></polygon><line x1="157.86" y1="418.03" x2="157.38" y2="422.06" style="fill:none;stroke:#263238;stroke-linecap:round;stroke-linejoin:round"></line><line x1="170.66" y1="310.93" x2="158.48" y2="412.87" style="fill:none;stroke:#263238;stroke-linecap:round;stroke-linejoin:round"></line><polygon points="99.72 296.28 111.42 429.06 138.46 429.06 146.13 300.72 99.72 296.28" style="fill:#90CAF9;stroke:#263238;stroke-linecap:round;stroke-linejoin:round"></polygon><line x1="132.83" y1="323.47" x2="132.91" y2="319.31" style="fill:none;stroke:#263238;stroke-linecap:round;stroke-linejoin:round"></line><line x1="130.82" y1="426.96" x2="132.72" y2="329.13" style="fill:none;stroke:#263238;stroke-linecap:round;stroke-linejoin:round"></line><polygon points="127.78 306.34 144.82 315.98 180.04 304.99 179.37 301.18 124.41 302.08 127.78 306.34" style="fill:#263238;stroke:#263238;stroke-linecap:round;stroke-linejoin:round"></polygon><path d="M181.75,164.67,199.17,299.6l-43.38,11.13-1.94-7-2.78,6.68L88.78,300.16s-2.11-141.53-2.11-142.92,8.77-5.46,13.22-7.41,27.54-14.57,27.54-14.57h20l32.35,15.51" style="fill:#fff;stroke:#263238;stroke-linecap:round;stroke-linejoin:round"></path><path d="M124.18,63.5A35.46,35.46,0,0,0,101,79.68c-8.35,13.83-7.57,49.17-7.57,49.17a126.33,126.33,0,0,0,33.17,2.73c16.15-.93,31.06-2.87,35-4.7a26.89,26.89,0,0,0,6.79-4.69s-9.92-19.32-10.18-24,4.7-7.57,1.31-17.23S141.15,58.28,124.18,63.5Z" style="fill:#263238;stroke:#263238;stroke-linecap:round;stroke-linejoin:round"></path><path d="M121,138.6,113,164.74l14.46,6.39L114.64,180s8.9,17.24,15.85,26.14,18.07,18.91,18.07,18.91,10.57-22.8,13.35-31.42,5.84-20,5.84-20l-10-4.45,8.34-6.68-12.79-25.58S136.88,125.81,121,138.6Z" style="fill:#fff;stroke:#263238;stroke-linecap:round;stroke-linejoin:round"></path><path d="M124.65,136.93s1.67,15.85,4.45,25.86S146.89,214,146.89,214s3.62-47.55,3.62-55.34-3.06-23.36-3.06-23.36Z" style="fill:#90CAF9;stroke:#263238;stroke-linecap:round;stroke-linejoin:round"></path><path d="M124.65,125.81s.83,22.52,2.5,25,6.95,7.23,13.35,7c5.58-.25,8.9-7,8.9-8.9s.55-21.14.55-21.14Z" style="fill:#fff;stroke:#263238;stroke-linecap:round;stroke-linejoin:round"></path><path d="M125.66,142.16a25.08,25.08,0,0,0,8.47-2.71A68.55,68.55,0,0,0,150,127.75l-25.3-1.94S125,134.89,125.66,142.16Z" style="fill:#263238;stroke:#263238;stroke-linecap:round;stroke-linejoin:round"></path><path d="M114.54,106.26s11.49-4.18,18.8-12.79,7.3-12,7.3-12L155,95.82s3.91,18.53,2.61,24.53-8.26,11.81-16.88,13.37-18.62-5-21.75-9.45a15.92,15.92,0,0,1-3.13-8.35s-8.09-.53-8.09-6.27S114.54,106.26,114.54,106.26Z" style="fill:#fff;stroke:#263238;stroke-linecap:round;stroke-linejoin:round"></path><ellipse cx="130.33" cy="101.04" rx="1.7" ry="2.61" style="fill:#263238"></ellipse><ellipse cx="147.69" cy="99.47" rx="1.7" ry="2.61" style="fill:#263238"></ellipse><path d="M142.47,101.3s-1,2.35.52,3.13,4.7,2.09,3.13,3.66-3.13,2.61-5.74,1.82" style="fill:none;stroke:#263238;stroke-linecap:round;stroke-linejoin:round"></path><path d="M144.82,113.31a29.85,29.85,0,0,1-7.31.52c-3.65-.26-5-1.31-5-1.31s2.61,7.57,5.74,6.79S144.82,113.31,144.82,113.31Z" style="fill:#263238;stroke:#263238;stroke-linecap:round;stroke-linejoin:round"></path><circle cx="129.55" cy="98.56" r="7.96" transform="translate(11.56 210.7) rotate(-80.81)" style="fill:none;stroke:#263238;stroke-linecap:round;stroke-linejoin:round"></circle><circle cx="149.39" cy="98.04" r="7.96" transform="translate(19.75 221.01) rotate(-76.76)" style="fill:none;stroke:#263238;stroke-linecap:round;stroke-linejoin:round"></circle><path d="M137.51,98.56s2.09-2.22,3.92,0" style="fill:none;stroke:#263238;stroke-linecap:round;stroke-linejoin:round"></path><path d="M146.12,93.47a5.66,5.66,0,0,1,5.49,2.09" style="fill:none;stroke:#263238;stroke-linecap:round;stroke-linejoin:round"></path><rect x="129.93" y="205.06" width="65.9" height="43.66" transform="translate(-12.56 9.57) rotate(-3.24)" style="fill:#263238;stroke:#263238;stroke-linecap:round;stroke-linejoin:round"></rect><path d="M147.45,230.92s9.73-1.39,12.51-2.23,5.84,1.39,10,3.9,7.51,2.78,7,4.17a2.18,2.18,0,0,1-2.51,1.67c-1.39,0-8.06-1.39-8.06-1.39s8.06,7.78,8.9,8.34,3.89,2.22,3.89,3.61-3.06,1.39-4.17,1.67-5.28,1.11-7.79,2-8.62,0-9.73-.84-11.12-8.62-12.79-9.17S147.45,230.92,147.45,230.92Z" style="fill:#fff;stroke:#263238;stroke-linecap:round;stroke-linejoin:round"></path><path d="M94.06,153.89s-11,3.63-12.39,6.69-7.91,76.73-6.8,79.24,72.58,12.51,72.58,12.51l1.39-22.52L93.5,214.51" style="fill:#fff;stroke:#263238;stroke-linecap:round;stroke-linejoin:round"></path><line x1="100.73" y1="216.74" x2="97.12" y2="171.69" style="fill:none;stroke:#263238;stroke-linecap:round;stroke-linejoin:round"></line><line x1="149.1" y1="254.32" x2="153.85" y2="303.77" style="fill:none;stroke:#263238;stroke-linecap:round;stroke-linejoin:round"></line></g></svg>